<svg id="Layer_2" data-name="Layer 2" xmlns="http://www.w3.org/2000/svg" width="22" height="22" viewBox="0 0 22 22" fill="currentColor">
  <g id="invisible_box" data-name="invisible box">
    <rect id="Прямоугольник_1154" data-name="Прямоугольник 1154" width="22" height="22" fill="none"/>
    <rect id="Прямоугольник_1155" data-name="Прямоугольник 1155" width="22" height="22" fill="none"/>
  </g>
  <g id="icons_Q2" data-name="icons Q2" transform="translate(1.842 1.888)">
    <path id="Контур_25764" data-name="Контур 25764" d="M22.423,5.021V21.51a.138.138,0,0,1-.046.092.875.875,0,0,1-.829.829H16.712V15.338h2.257c.138,0,.138,0,.184-.138l.138-1.151c.046-.461.092-.921.184-1.382s0-.138-.092-.138H16.712v-1.8c0-.138.046-.322.046-.461a.829.829,0,0,1,.737-.737l.6-.092h1.382c.092,0,.092,0,.092-.092V7c0-.046,0-.092-.092-.092H17.357a3.316,3.316,0,0,0-1.52.322A2.763,2.763,0,0,0,14.225,8.66a3.362,3.362,0,0,0-.368,1.658c-.046.691,0,1.428,0,2.165H11.507c-.092,0-.092.046-.092.092V15.2c0,.092,0,.092.092.092h2.349v7.093a.138.138,0,0,0-.046.092H4.875a.875.875,0,0,1-.829-.829C4,21.648,4,21.6,4,21.556V5.021c0-.046,0-.092.046-.092A.875.875,0,0,1,4.875,4.1H21.548a.875.875,0,0,1,.829.829Z" transform="translate(-4 -4.1)"/>
  </g>
</svg>
