<svg xmlns="http://www.w3.org/2000/svg" width="22" height="22" viewBox="0 0 22 22" fill="currentColor">
  <g id="Layer_2" data-name="Layer 2" transform="translate(0 0.067)">
    <g id="invisible_box" data-name="invisible box" transform="translate(0 -0.067)">
      <rect id="Прямоугольник_1156" data-name="Прямоугольник 1156" width="22" height="22" fill="none"/>
      <rect id="Прямоугольник_1157" data-name="Прямоугольник 1157" width="22" height="22" fill="none"/>
    </g>
    <g id="icons_Q2" data-name="icons Q2" transform="translate(1.828 1.868)">
      <path id="Контур_25765" data-name="Контур 25765" d="M20.911,4.1H5.371A1.325,1.325,0,0,0,4,5.425V21.01a1.325,1.325,0,0,0,1.371,1.325h15.54a1.325,1.325,0,0,0,1.325-1.325V5.425A1.325,1.325,0,0,0,20.911,4.1ZM9.439,19.639H6.7V10.955H9.439ZM8.068,9.766a1.6,1.6,0,0,1-1.554-1.6,1.554,1.554,0,0,1,3.108,0,1.6,1.6,0,0,1-1.554,1.6ZM19.54,19.639h-2.7V15.388c0-1.006,0-2.285-1.417-2.285s-1.6,1.1-1.6,2.24v4.3h-2.7V10.955h2.559v1.188h.046a2.834,2.834,0,0,1,2.559-1.417c2.742,0,3.245,1.782,3.245,4.159Z" transform="translate(-4 -4.098)"/>
    </g>
  </g>
</svg>
