<svg xmlns="http://www.w3.org/2000/svg" width="23" height="23" viewBox="0 0 23 23" fill="currentColor">
  <g id="Layer_2" data-name="Layer 2" transform="translate(0 0.282)">
    <g id="invisible_box" data-name="invisible box">
      <rect id="Прямоугольник_1158" data-name="Прямоугольник 1158" width="23" height="23" transform="translate(0 -0.282)" fill="none"/>
      <rect id="Прямоугольник_1159" data-name="Прямоугольник 1159" width="23" height="23" transform="translate(0 -0.282)" fill="none"/>
    </g>
    <g id="icons_Q2" data-name="icons Q2" transform="translate(0.947 2.87)">
      <path id="Контур_25766" data-name="Контур 25766" d="M22.825,8.021a8.661,8.661,0,0,1-2.461.71,4.449,4.449,0,0,0,1.893-2.366,10.98,10.98,0,0,1-2.7,1.041,4.307,4.307,0,0,0-7.431,2.887,3.6,3.6,0,0,0,.142.994,12.211,12.211,0,0,1-8.8-4.449,4.023,4.023,0,0,0-.615,2.13,4.212,4.212,0,0,0,1.94,3.55A3.834,3.834,0,0,1,2.852,12h0A4.212,4.212,0,0,0,6.26,16.209a4.07,4.07,0,0,1-1.136.189l-.8-.095a4.354,4.354,0,0,0,4.023,2.982,8.614,8.614,0,0,1-5.3,1.8H2a11.879,11.879,0,0,0,6.531,1.94A12.1,12.1,0,0,0,20.695,10.861v-.615a8.661,8.661,0,0,0,2.13-2.224Z" transform="translate(-2 -6.063)"/>
    </g>
  </g>
</svg>
