<svg xmlns="http://www.w3.org/2000/svg" width="87.06" height="73.666" viewBox="0 0 87.06 73.666">
  <g id="quote-left" transform="translate(0 -36.545)">
    <g id="Сгруппировать_26042" data-name="Сгруппировать 26042" transform="translate(0 36.545)">
      <path id="Контур_25794" data-name="Контур 25794" d="M30.136,70.03H18.416a5,5,0,0,1-5.023-5.023V63.333a12.9,12.9,0,0,1,3.925-9.47,12.907,12.907,0,0,1,9.47-3.924h3.348a3.395,3.395,0,0,0,3.348-3.348v-6.7a3.395,3.395,0,0,0-3.348-3.349H26.788A26.1,26.1,0,0,0,16.4,38.664,26.534,26.534,0,0,0,2.119,52.947,26.093,26.093,0,0,0,0,63.333v36.832a9.688,9.688,0,0,0,2.929,7.116,9.69,9.69,0,0,0,7.116,2.929H30.137a10,10,0,0,0,10.045-10.046V80.076A10,10,0,0,0,30.136,70.03Z" transform="translate(0 -36.545)" fill="#ffd300"/>
      <path id="Контур_25795" data-name="Контур 25795" d="M293.072,72.96a9.687,9.687,0,0,0-7.115-2.929h-11.72a5,5,0,0,1-5.022-5.023V63.333A13.4,13.4,0,0,1,282.61,49.94h3.348a3.4,3.4,0,0,0,3.349-3.348v-6.7a3.4,3.4,0,0,0-3.349-3.349H282.61a26.111,26.111,0,0,0-10.388,2.119A26.541,26.541,0,0,0,257.94,52.947a26.1,26.1,0,0,0-2.12,10.386v36.832a10,10,0,0,0,10.045,10.046h20.091A10,10,0,0,0,296,100.166V80.076A9.687,9.687,0,0,0,293.072,72.96Z" transform="translate(-208.94 -36.545)" fill="#ffd300"/>
    </g>
  </g>
</svg>
