<svg xmlns="http://www.w3.org/2000/svg" xmlns:xlink="http://www.w3.org/1999/xlink" width="570" height="492" viewBox="0 0 570 492">
  <defs>
    <clipPath id="clip-path">
      <rect width="30.236" height="282" fill="none"/>
    </clipPath>
  </defs>
  <g id="Сгруппировать_26121" data-name="Сгруппировать 26121" transform="translate(-1578 7)">
    <rect id="Прямоугольник_1206" data-name="Прямоугольник 1206" width="570" height="152" transform="translate(1578 219)" fill="#63d863"/>
    <rect id="Прямоугольник_1210" data-name="Прямоугольник 1210" width="410" height="281" transform="translate(1714)" fill="#ffd300"/>
    <rect id="Прямоугольник_1212" data-name="Прямоугольник 1212" width="77" height="492" transform="translate(1600 -7)" fill="#ffd300"/>
    <g id="Повторяющаяся_сетка_12" data-name="Повторяющаяся сетка 12" transform="translate(1750.382 148)" clip-path="url(#clip-path)">
      <g transform="translate(-317.382 -263.5)">
        <line id="Линия_162" data-name="Линия 162" y1="8" x2="11" transform="translate(318.5 275.5)" fill="none" stroke="#fff" stroke-width="3"/>
      </g>
      <g transform="translate(-317.382 -248.5)">
        <line id="Линия_162-2" data-name="Линия 162" y1="8" x2="11" transform="translate(318.5 275.5)" fill="none" stroke="#fff" stroke-width="3"/>
      </g>
      <g transform="translate(-317.382 -233.5)">
        <line id="Линия_162-3" data-name="Линия 162" y1="8" x2="11" transform="translate(318.5 275.5)" fill="none" stroke="#fff" stroke-width="3"/>
      </g>
      <g transform="translate(-317.382 -218.5)">
        <line id="Линия_162-4" data-name="Линия 162" y1="8" x2="11" transform="translate(318.5 275.5)" fill="none" stroke="#fff" stroke-width="3"/>
      </g>
      <g transform="translate(-317.382 -203.5)">
        <line id="Линия_162-5" data-name="Линия 162" y1="8" x2="11" transform="translate(318.5 275.5)" fill="none" stroke="#fff" stroke-width="3"/>
      </g>
      <g transform="translate(-317.382 -188.5)">
        <line id="Линия_162-6" data-name="Линия 162" y1="8" x2="11" transform="translate(318.5 275.5)" fill="none" stroke="#fff" stroke-width="3"/>
      </g>
      <g transform="translate(-317.382 -173.5)">
        <line id="Линия_162-7" data-name="Линия 162" y1="8" x2="11" transform="translate(318.5 275.5)" fill="none" stroke="#fff" stroke-width="3"/>
      </g>
      <g transform="translate(-317.382 -158.5)">
        <line id="Линия_162-8" data-name="Линия 162" y1="8" x2="11" transform="translate(318.5 275.5)" fill="none" stroke="#fff" stroke-width="3"/>
      </g>
      <g transform="translate(-317.382 -143.5)">
        <line id="Линия_162-9" data-name="Линия 162" y1="8" x2="11" transform="translate(318.5 275.5)" fill="none" stroke="#fff" stroke-width="3"/>
      </g>
      <g transform="translate(-317.382 -128.5)">
        <line id="Линия_162-10" data-name="Линия 162" y1="8" x2="11" transform="translate(318.5 275.5)" fill="none" stroke="#fff" stroke-width="3"/>
      </g>
      <g transform="translate(-317.382 -113.5)">
        <line id="Линия_162-11" data-name="Линия 162" y1="8" x2="11" transform="translate(318.5 275.5)" fill="none" stroke="#fff" stroke-width="3"/>
      </g>
      <g transform="translate(-317.382 -98.5)">
        <line id="Линия_162-12" data-name="Линия 162" y1="8" x2="11" transform="translate(318.5 275.5)" fill="none" stroke="#fff" stroke-width="3"/>
      </g>
      <g transform="translate(-317.382 -83.5)">
        <line id="Линия_162-13" data-name="Линия 162" y1="8" x2="11" transform="translate(318.5 275.5)" fill="none" stroke="#fff" stroke-width="3"/>
      </g>
      <g transform="translate(-317.382 -68.5)">
        <line id="Линия_162-14" data-name="Линия 162" y1="8" x2="11" transform="translate(318.5 275.5)" fill="none" stroke="#fff" stroke-width="3"/>
      </g>
      <g transform="translate(-317.382 -53.5)">
        <line id="Линия_162-15" data-name="Линия 162" y1="8" x2="11" transform="translate(318.5 275.5)" fill="none" stroke="#fff" stroke-width="3"/>
      </g>
      <g transform="translate(-317.382 -38.5)">
        <line id="Линия_162-16" data-name="Линия 162" y1="8" x2="11" transform="translate(318.5 275.5)" fill="none" stroke="#fff" stroke-width="3"/>
      </g>
      <g transform="translate(-317.382 -23.5)">
        <line id="Линия_162-17" data-name="Линия 162" y1="8" x2="11" transform="translate(318.5 275.5)" fill="none" stroke="#fff" stroke-width="3"/>
      </g>
      <g transform="translate(-317.382 -8.5)">
        <line id="Линия_162-18" data-name="Линия 162" y1="8" x2="11" transform="translate(318.5 275.5)" fill="none" stroke="#fff" stroke-width="3"/>
      </g>
      <g transform="translate(-317.382 6.5)">
        <line id="Линия_162-19" data-name="Линия 162" y1="8" x2="11" transform="translate(318.5 275.5)" fill="none" stroke="#fff" stroke-width="3"/>
      </g>
    </g>
  </g>
</svg>
