<svg xmlns="http://www.w3.org/2000/svg" xmlns:xlink="http://www.w3.org/1999/xlink" width="255" height="129" viewBox="0 0 255 129">
  <defs>
    <clipPath id="clip-path">
      <rect id="Прямоугольник_1259" data-name="Прямоугольник 1259" width="255" height="129" transform="translate(1210 1044)" fill="#fff" stroke="#707070" stroke-width="1"/>
    </clipPath>
  </defs>
  <g id="Группа_масок_1" data-name="Группа масок 1" transform="translate(-1210 -1044)" clip-path="url(#clip-path)">
    <g id="Контур_25791" data-name="Контур 25791" transform="translate(1257.825 976)" fill="none">
      <path d="M91.587,0A91.587,91.587,0,1,1,0,91.587,91.587,91.587,0,0,1,91.587,0Z" stroke="none"/>
      <path d="M 91.58746337890625 29.99998474121094 C 57.62799072265625 29.99998474121094 29.99998474121094 57.62799072265625 29.99998474121094 91.58746337890625 C 29.99998474121094 125.5469360351563 57.62799072265625 153.1749420166016 91.58746337890625 153.1749420166016 C 125.5469360351563 153.1749420166016 153.1749420166016 125.5469360351563 153.1749420166016 91.58746337890625 C 153.1749420166016 57.62799072265625 125.5469360351563 29.99998474121094 91.58746337890625 29.99998474121094 M 91.58746337890625 -1.52587890625e-05 C 142.1698303222656 -1.52587890625e-05 183.1749420166016 41.00509643554688 183.1749420166016 91.58746337890625 C 183.1749420166016 142.1698303222656 142.1698303222656 183.1749420166016 91.58746337890625 183.1749420166016 C 41.00509643554688 183.1749420166016 -1.52587890625e-05 142.1698303222656 -1.52587890625e-05 91.58746337890625 C -1.52587890625e-05 41.00509643554688 41.00509643554688 -1.52587890625e-05 91.58746337890625 -1.52587890625e-05 Z" stroke="none" fill="#fed408"/>
    </g>
  </g>
</svg>
