<svg xmlns="http://www.w3.org/2000/svg" xmlns:xlink="http://www.w3.org/1999/xlink" width="414" height="30.236" viewBox="0 0 414 30.236">
  <defs>
    <clipPath id="clip-path">
      <rect width="30.236" height="414" fill="none"/>
    </clipPath>
  </defs>
  <g id="Повторяющаяся_сетка_17" data-name="Повторяющаяся сетка 17" transform="translate(414) rotate(90)" clip-path="url(#clip-path)">
    <g transform="translate(-317.382 -263.5)">
      <line id="Линия_162" data-name="Линия 162" y1="8" x2="11" transform="translate(318.5 275.5)" fill="none" stroke="#707070" stroke-width="3"/>
    </g>
    <g transform="translate(-317.382 -248.5)">
      <line id="Линия_162-2" data-name="Линия 162" y1="8" x2="11" transform="translate(318.5 275.5)" fill="none" stroke="#707070" stroke-width="3"/>
    </g>
    <g transform="translate(-317.382 -233.5)">
      <line id="Линия_162-3" data-name="Линия 162" y1="8" x2="11" transform="translate(318.5 275.5)" fill="none" stroke="#707070" stroke-width="3"/>
    </g>
    <g transform="translate(-317.382 -218.5)">
      <line id="Линия_162-4" data-name="Линия 162" y1="8" x2="11" transform="translate(318.5 275.5)" fill="none" stroke="#707070" stroke-width="3"/>
    </g>
    <g transform="translate(-317.382 -203.5)">
      <line id="Линия_162-5" data-name="Линия 162" y1="8" x2="11" transform="translate(318.5 275.5)" fill="none" stroke="#707070" stroke-width="3"/>
    </g>
    <g transform="translate(-317.382 -188.5)">
      <line id="Линия_162-6" data-name="Линия 162" y1="8" x2="11" transform="translate(318.5 275.5)" fill="none" stroke="#707070" stroke-width="3"/>
    </g>
    <g transform="translate(-317.382 -173.5)">
      <line id="Линия_162-7" data-name="Линия 162" y1="8" x2="11" transform="translate(318.5 275.5)" fill="none" stroke="#707070" stroke-width="3"/>
    </g>
    <g transform="translate(-317.382 -158.5)">
      <line id="Линия_162-8" data-name="Линия 162" y1="8" x2="11" transform="translate(318.5 275.5)" fill="none" stroke="#707070" stroke-width="3"/>
    </g>
    <g transform="translate(-317.382 -143.5)">
      <line id="Линия_162-9" data-name="Линия 162" y1="8" x2="11" transform="translate(318.5 275.5)" fill="none" stroke="#707070" stroke-width="3"/>
    </g>
    <g transform="translate(-317.382 -128.5)">
      <line id="Линия_162-10" data-name="Линия 162" y1="8" x2="11" transform="translate(318.5 275.5)" fill="none" stroke="#707070" stroke-width="3"/>
    </g>
    <g transform="translate(-317.382 -113.5)">
      <line id="Линия_162-11" data-name="Линия 162" y1="8" x2="11" transform="translate(318.5 275.5)" fill="none" stroke="#707070" stroke-width="3"/>
    </g>
    <g transform="translate(-317.382 -98.5)">
      <line id="Линия_162-12" data-name="Линия 162" y1="8" x2="11" transform="translate(318.5 275.5)" fill="none" stroke="#707070" stroke-width="3"/>
    </g>
    <g transform="translate(-317.382 -83.5)">
      <line id="Линия_162-13" data-name="Линия 162" y1="8" x2="11" transform="translate(318.5 275.5)" fill="none" stroke="#707070" stroke-width="3"/>
    </g>
    <g transform="translate(-317.382 -68.5)">
      <line id="Линия_162-14" data-name="Линия 162" y1="8" x2="11" transform="translate(318.5 275.5)" fill="none" stroke="#707070" stroke-width="3"/>
    </g>
    <g transform="translate(-317.382 -53.5)">
      <line id="Линия_162-15" data-name="Линия 162" y1="8" x2="11" transform="translate(318.5 275.5)" fill="none" stroke="#707070" stroke-width="3"/>
    </g>
    <g transform="translate(-317.382 -38.5)">
      <line id="Линия_162-16" data-name="Линия 162" y1="8" x2="11" transform="translate(318.5 275.5)" fill="none" stroke="#707070" stroke-width="3"/>
    </g>
    <g transform="translate(-317.382 -23.5)">
      <line id="Линия_162-17" data-name="Линия 162" y1="8" x2="11" transform="translate(318.5 275.5)" fill="none" stroke="#707070" stroke-width="3"/>
    </g>
    <g transform="translate(-317.382 -8.5)">
      <line id="Линия_162-18" data-name="Линия 162" y1="8" x2="11" transform="translate(318.5 275.5)" fill="none" stroke="#707070" stroke-width="3"/>
    </g>
    <g transform="translate(-317.382 6.5)">
      <line id="Линия_162-19" data-name="Линия 162" y1="8" x2="11" transform="translate(318.5 275.5)" fill="none" stroke="#707070" stroke-width="3"/>
    </g>
    <g transform="translate(-317.382 21.5)">
      <line id="Линия_162-20" data-name="Линия 162" y1="8" x2="11" transform="translate(318.5 275.5)" fill="none" stroke="#707070" stroke-width="3"/>
    </g>
    <g transform="translate(-317.382 36.5)">
      <line id="Линия_162-21" data-name="Линия 162" y1="8" x2="11" transform="translate(318.5 275.5)" fill="none" stroke="#707070" stroke-width="3"/>
    </g>
    <g transform="translate(-317.382 51.5)">
      <line id="Линия_162-22" data-name="Линия 162" y1="8" x2="11" transform="translate(318.5 275.5)" fill="none" stroke="#707070" stroke-width="3"/>
    </g>
    <g transform="translate(-317.382 66.5)">
      <line id="Линия_162-23" data-name="Линия 162" y1="8" x2="11" transform="translate(318.5 275.5)" fill="none" stroke="#707070" stroke-width="3"/>
    </g>
    <g transform="translate(-317.382 81.5)">
      <line id="Линия_162-24" data-name="Линия 162" y1="8" x2="11" transform="translate(318.5 275.5)" fill="none" stroke="#707070" stroke-width="3"/>
    </g>
    <g transform="translate(-317.382 96.5)">
      <line id="Линия_162-25" data-name="Линия 162" y1="8" x2="11" transform="translate(318.5 275.5)" fill="none" stroke="#707070" stroke-width="3"/>
    </g>
    <g transform="translate(-317.382 111.5)">
      <line id="Линия_162-26" data-name="Линия 162" y1="8" x2="11" transform="translate(318.5 275.5)" fill="none" stroke="#707070" stroke-width="3"/>
    </g>
    <g transform="translate(-317.382 126.5)">
      <line id="Линия_162-27" data-name="Линия 162" y1="8" x2="11" transform="translate(318.5 275.5)" fill="none" stroke="#707070" stroke-width="3"/>
    </g>
    <g transform="translate(-317.382 141.5)">
      <line id="Линия_162-28" data-name="Линия 162" y1="8" x2="11" transform="translate(318.5 275.5)" fill="none" stroke="#707070" stroke-width="3"/>
    </g>
  </g>
</svg>
