<?xml version="1.0" encoding="utf-8"?><svg viewBox="0 0 59.907 35.138" xmlns="http://www.w3.org/2000/svg" xmlns:xlink="http://www.w3.org/1999/xlink"><style>:root>svg{display:none}:root>svg:target{display:block}</style><svg viewBox="0 0 59.907 35.138" id="ic_arrow_right" xmlns="http://www.w3.org/2000/svg"><g data-name="Сгруппировать 26063" fill="none" stroke="currentColor" stroke-width="5"><path data-name="Контур 40" d="M40.571 1.768l15.8 15.8-15.8 15.8"/><path data-name="Линия 1" d="M0 17.569h56.149"/></g></svg><svg data-name="Layer 2" fill="currentColor" viewBox="0 0 22 22" id="ic_facebook" xmlns="http://www.w3.org/2000/svg"><g data-name="invisible box" fill="none"><path data-name="Прямоугольник 1154" d="M0 0h22v22H0z"/><path data-name="Прямоугольник 1155" d="M0 0h22v22H0z"/></g><g data-name="icons Q2"><path data-name="Контур 25764" d="M20.265 2.809v16.489a.138.138 0 0 1-.046.092.875.875 0 0 1-.829.829h-4.836v-7.093h2.257c.138 0 .138 0 .184-.138l.138-1.151c.046-.461.092-.921.184-1.382s0-.138-.092-.138h-2.671v-1.8c0-.138.046-.322.046-.461a.829.829 0 0 1 .737-.737l.6-.092h1.382c.092 0 .092 0 .092-.092V4.788c0-.046 0-.092-.092-.092h-2.12a3.316 3.316 0 0 0-1.52.322 2.763 2.763 0 0 0-1.612 1.43 3.362 3.362 0 0 0-.368 1.658c-.046.691 0 1.428 0 2.165h-2.35c-.092 0-.092.046-.092.092v2.625c0 .092 0 .092.092.092h2.349v7.093a.138.138 0 0 0-.046.092H2.717a.875.875 0 0 1-.829-.829c-.046 0-.046-.048-.046-.092V2.809c0-.046 0-.092.046-.092a.875.875 0 0 1 .829-.829H19.39a.875.875 0 0 1 .829.829z"/></g></svg><svg fill="currentColor" viewBox="0 0 22 22" id="ic_linkedin" xmlns="http://www.w3.org/2000/svg"><g data-name="Layer 2"><g data-name="invisible box" fill="none"><path data-name="Прямоугольник 1156" d="M0 0h22v22H0z"/><path data-name="Прямоугольник 1157" d="M0 0h22v22H0z"/></g><g data-name="icons Q2"><path data-name="Контур 25765" d="M18.739 1.937H3.199a1.325 1.325 0 0 0-1.371 1.325v15.585a1.325 1.325 0 0 0 1.371 1.325h15.54a1.325 1.325 0 0 0 1.325-1.325V3.262a1.325 1.325 0 0 0-1.325-1.325zM7.267 17.476H4.528V8.792h2.739zM5.896 7.603a1.6 1.6 0 0 1-1.554-1.6 1.554 1.554 0 0 1 3.108 0 1.6 1.6 0 0 1-1.554 1.6zm11.472 9.873h-2.7v-4.251c0-1.006 0-2.285-1.417-2.285s-1.6 1.1-1.6 2.24v4.3h-2.7V8.792h2.559V9.98h.046a2.834 2.834 0 0 1 2.559-1.417c2.742 0 3.245 1.782 3.245 4.159z"/></g></g></svg><svg fill="currentColor" viewBox="0 0 23 23" id="ic_twitter" xmlns="http://www.w3.org/2000/svg"><g data-name="Layer 2"><g data-name="invisible box" fill="none"><path data-name="Прямоугольник 1158" d="M0 0h23v23H0z"/><path data-name="Прямоугольник 1159" d="M0 0h23v23H0z"/></g><g data-name="icons Q2"><path data-name="Контур 25766" d="M21.772 5.11a8.661 8.661 0 0 1-2.461.71 4.449 4.449 0 0 0 1.893-2.366 10.98 10.98 0 0 1-2.7 1.041 4.307 4.307 0 0 0-7.431 2.887 3.6 3.6 0 0 0 .142.994 12.211 12.211 0 0 1-8.8-4.449 4.023 4.023 0 0 0-.615 2.13 4.212 4.212 0 0 0 1.94 3.55 3.834 3.834 0 0 1-1.941-.518 4.212 4.212 0 0 0 3.408 4.209 4.07 4.07 0 0 1-1.136.189l-.8-.095a4.354 4.354 0 0 0 4.023 2.982 8.614 8.614 0 0 1-5.3 1.8H.947a11.879 11.879 0 0 0 6.531 1.94A12.1 12.1 0 0 0 19.642 7.95v-.615a8.661 8.661 0 0 0 2.13-2.224z"/></g></g></svg></svg>